<svg width="161" height="92" viewBox="0 0 161 92" fill="none" xmlns="http://www.w3.org/2000/svg">
<path d="M30.456 71.896C26.0187 71.896 22.2853 70.9147 19.256 68.952C16.2267 66.9467 14.0933 64.2373 12.856 60.824L20.408 56.408C22.1573 60.9733 25.592 63.256 30.712 63.256C33.1867 63.256 35 62.808 36.152 61.912C37.304 61.016 37.88 59.8853 37.88 58.52C37.88 56.9413 37.176 55.7253 35.768 54.872C34.36 53.976 31.8427 53.016 28.216 51.992C26.2107 51.3947 24.504 50.7973 23.096 50.2C21.7307 49.6027 20.344 48.8133 18.936 47.832C17.5707 46.808 16.5253 45.528 15.8 43.992C15.0747 42.456 14.712 40.664 14.712 38.616C14.712 34.5627 16.1413 31.3413 19 28.952C21.9013 26.52 25.3787 25.304 29.432 25.304C33.0587 25.304 36.2373 26.2 38.968 27.992C41.7413 29.7413 43.896 32.1947 45.432 35.352L38.008 39.64C36.216 35.8 33.3573 33.88 29.432 33.88C27.5973 33.88 26.1467 34.3067 25.08 35.16C24.056 35.9707 23.544 37.0373 23.544 38.36C23.544 39.768 24.12 40.92 25.272 41.816C26.4667 42.6693 28.728 43.608 32.056 44.632C33.4213 45.0587 34.4453 45.4 35.128 45.656C35.8533 45.8693 36.8133 46.232 38.008 46.744C39.2453 47.2133 40.184 47.6613 40.824 48.088C41.5067 48.5147 42.2747 49.0907 43.128 49.816C43.9813 50.5413 44.6213 51.288 45.048 52.056C45.5173 52.824 45.9013 53.7627 46.2 54.872C46.5413 55.9387 46.712 57.112 46.712 58.392C46.712 62.5307 45.1973 65.816 42.168 68.248C39.1813 70.68 35.2773 71.896 30.456 71.896ZM68.1955 71.896C63.3742 71.896 59.3422 70.2747 56.0995 67.032C52.8995 63.7893 51.2995 59.7787 51.2995 55C51.2995 50.2213 52.8995 46.2107 56.0995 42.968C59.3422 39.7253 63.3742 38.104 68.1955 38.104C71.3102 38.104 74.1475 38.8507 76.7075 40.344C79.2675 41.8373 81.2088 43.8427 82.5315 46.36L75.4275 50.52C74.7875 49.1973 73.8062 48.152 72.4835 47.384C71.2035 46.616 69.7528 46.232 68.1315 46.232C65.6568 46.232 63.6088 47.064 61.9875 48.728C60.3662 50.3493 59.5555 52.44 59.5555 55C59.5555 57.5173 60.3662 59.608 61.9875 61.272C63.6088 62.8933 65.6568 63.704 68.1315 63.704C69.7955 63.704 71.2675 63.3413 72.5475 62.616C73.8702 61.848 74.8515 60.8027 75.4915 59.48L82.6595 63.576C81.2515 66.0933 79.2675 68.12 76.7075 69.656C74.1475 71.1493 71.3102 71.896 68.1955 71.896ZM113.58 26.2H122.412V71H115.692L96.492 43.608V71H87.66V26.2H94.38L113.58 53.528V26.2ZM159.843 71H150.243L138.595 56.472V71H130.339V26.2H138.595V53.08L149.603 39H159.458L146.595 54.808L159.843 71Z" fill="#0C0A18"/>
<path d="M19.256 68.952L18.704 69.7859L18.7123 69.7913L19.256 68.952ZM12.856 60.824L12.3512 59.9608L11.6319 60.3814L11.9159 61.1648L12.856 60.824ZM20.408 56.408L21.3418 56.0502L20.9202 54.95L19.9032 55.5448L20.408 56.408ZM36.152 61.912L35.5381 61.1226L35.5381 61.1226L36.152 61.912ZM35.768 54.872L35.2311 55.7157L35.2404 55.7215L35.2497 55.7272L35.768 54.872ZM28.216 51.992L27.9305 52.9504L27.9374 52.9524L27.9443 52.9544L28.216 51.992ZM23.096 50.2L22.6952 51.1162L22.7055 51.1206L23.096 50.2ZM18.936 47.832L18.336 48.632L18.3499 48.6424L18.3642 48.6524L18.936 47.832ZM15.8 43.992L14.8958 44.419L14.8958 44.419L15.8 43.992ZM19 28.952L19.6413 29.7193L19.6424 29.7184L19 28.952ZM38.968 27.992L38.4193 28.828L38.4269 28.833L38.4345 28.8378L38.968 27.992ZM45.432 35.352L45.9322 36.2179L46.7387 35.7521L46.3312 34.9145L45.432 35.352ZM38.008 39.64L37.1018 40.0629L37.5633 41.0517L38.5082 40.5059L38.008 39.64ZM25.08 35.16L25.7007 35.9441L25.7047 35.9409L25.08 35.16ZM25.272 41.816L24.6581 42.6054L24.6742 42.6179L24.6908 42.6297L25.272 41.816ZM32.056 44.632L32.3543 43.6775L32.3501 43.6762L32.056 44.632ZM35.128 45.656L34.7769 46.5923L34.8109 46.6051L34.8458 46.6154L35.128 45.656ZM38.008 46.744L37.6141 47.6631L37.6335 47.6715L37.6533 47.679L38.008 46.744ZM40.824 48.088L40.2693 48.92L40.2815 48.9282L40.294 48.936L40.824 48.088ZM43.128 49.816L43.7757 49.0541L43.7757 49.0541L43.128 49.816ZM45.048 52.056L44.1738 52.5416L44.1839 52.5598L44.1947 52.5775L45.048 52.056ZM46.2 54.872L45.2344 55.132L45.2405 55.1545L45.2476 55.1768L46.2 54.872ZM42.168 68.248L41.542 67.4682L41.5366 67.4726L42.168 68.248ZM30.456 70.896C26.1672 70.896 22.6335 69.9487 19.7997 68.1127L18.7123 69.7913C21.9372 71.8806 25.8701 72.896 30.456 72.896V70.896ZM19.808 68.1181C16.9575 66.2312 14.9603 63.6947 13.7961 60.4832L11.9159 61.1648C13.2264 64.78 15.4959 67.6622 18.704 69.7859L19.808 68.1181ZM13.3608 61.6872L20.9128 57.2712L19.9032 55.5448L12.3512 59.9608L13.3608 61.6872ZM19.4742 56.7658C20.4091 59.2056 21.8219 61.1004 23.7425 62.3768C25.6595 63.6509 28.0028 64.256 30.712 64.256V62.256C28.3012 62.256 26.3671 61.7198 24.8495 60.7112C23.3355 59.7049 22.1563 58.1758 21.3418 56.0502L19.4742 56.7658ZM30.712 64.256C33.2687 64.256 35.3529 63.8004 36.7659 62.7014L35.5381 61.1226C34.6471 61.8156 33.1046 62.256 30.712 62.256V64.256ZM36.7659 62.7014C38.1421 61.631 38.88 60.2177 38.88 58.52H36.88C36.88 59.553 36.4659 60.401 35.5381 61.1226L36.7659 62.7014ZM38.88 58.52C38.88 56.5737 37.9777 55.0419 36.2863 54.0168L35.2497 55.7272C36.3743 56.4088 36.88 57.3089 36.88 58.52H38.88ZM36.3049 54.0283C34.7628 53.047 32.1205 52.0554 28.4877 51.0296L27.9443 52.9544C31.5648 53.9766 33.9572 54.905 35.2311 55.7157L36.3049 54.0283ZM28.5015 51.0336C26.5199 50.4433 24.8504 49.858 23.4866 49.2794L22.7055 51.1206C24.1576 51.7366 25.9015 52.346 27.9305 52.9504L28.5015 51.0336ZM23.4968 49.2838C22.1997 48.7163 20.87 47.961 19.5078 47.0116L18.3642 48.6524C19.818 49.6657 21.2616 50.489 22.6952 51.1162L23.4968 49.2838ZM19.536 47.032C18.3003 46.1052 17.3597 44.953 16.7042 43.565L14.8958 44.419C15.691 46.103 16.841 47.5108 18.336 48.632L19.536 47.032ZM16.7042 43.565C16.0536 42.1871 15.712 40.5462 15.712 38.616H13.712C13.712 40.7818 14.0957 42.7249 14.8958 44.419L16.7042 43.565ZM15.712 38.616C15.712 34.8293 17.0317 31.9004 19.6413 29.7193L18.3587 28.1847C15.2509 30.7822 13.712 34.296 13.712 38.616H15.712ZM19.6424 29.7184C22.3504 27.4484 25.5957 26.304 29.432 26.304V24.304C25.1616 24.304 21.4522 25.5916 18.3576 28.1856L19.6424 29.7184ZM29.432 26.304C32.886 26.304 35.8694 27.1546 38.4193 28.828L39.5167 27.1559C36.6053 25.2454 33.2313 24.304 29.432 24.304V26.304ZM38.4345 28.8378C41.039 30.4807 43.0723 32.7873 44.5328 35.7895L46.3312 34.9145C44.7198 31.602 42.4436 29.002 39.5015 27.1462L38.4345 28.8378ZM44.9318 34.4861L37.5078 38.7741L38.5082 40.5059L45.9322 36.2179L44.9318 34.4861ZM38.9142 39.2171C37.9589 37.1701 36.6893 35.5724 35.0776 34.4899C33.4611 33.4042 31.5646 32.88 29.432 32.88V34.88C31.2247 34.88 32.7203 35.3158 33.9624 36.1501C35.2093 36.9876 36.2651 38.2699 37.1018 40.0629L38.9142 39.2171ZM29.432 32.88C27.448 32.88 25.7517 33.342 24.4553 34.3791L25.7047 35.9409C26.5416 35.2713 27.7466 34.88 29.432 34.88V32.88ZM24.4593 34.376C23.1922 35.3791 22.544 36.7363 22.544 38.36H24.544C24.544 37.3384 24.9198 36.5622 25.7007 35.944L24.4593 34.376ZM22.544 38.36C22.544 40.0895 23.2728 41.528 24.6581 42.6054L25.8859 41.0266C24.9672 40.312 24.544 39.4465 24.544 38.36H22.544ZM24.6908 42.6297C26.0306 43.5867 28.4335 44.5637 31.7619 45.5878L32.3501 43.6762C29.0225 42.6523 26.9027 41.7519 25.8532 41.0023L24.6908 42.6297ZM31.7577 45.5865C33.1187 46.0118 34.1212 46.3464 34.7769 46.5923L35.4791 44.7197C34.7695 44.4536 33.724 44.1055 32.3543 43.6775L31.7577 45.5865ZM34.8458 46.6154C35.5157 46.8124 36.434 47.1574 37.6141 47.6631L38.4019 45.8249C37.1927 45.3066 36.191 44.9263 35.4102 44.6966L34.8458 46.6154ZM37.6533 47.679C38.8629 48.1378 39.7209 48.5545 40.2693 48.92L41.3787 47.2559C40.6471 46.7682 39.6278 46.2889 38.3627 45.809L37.6533 47.679ZM40.294 48.936C40.923 49.3291 41.6509 49.8729 42.4804 50.5779L43.7757 49.0541C42.8984 48.3084 42.0904 47.7002 41.354 47.24L40.294 48.936ZM42.4804 50.5779C43.2662 51.2459 43.819 51.903 44.1738 52.5416L45.9222 51.5704C45.4236 50.673 44.6965 49.8367 43.7757 49.0541L42.4804 50.5779ZM44.1947 52.5775C44.6028 53.2452 44.954 54.0906 45.2344 55.132L47.1656 54.612C46.8486 53.4347 46.4319 52.4027 45.9013 51.5345L44.1947 52.5775ZM45.2476 55.1768C45.5532 56.132 45.712 57.2009 45.712 58.392H47.712C47.712 57.0231 47.5294 55.7453 47.1524 54.5672L45.2476 55.1768ZM45.712 58.392C45.712 62.2503 44.3177 65.2398 41.542 67.4682L42.794 69.0278C46.077 66.3922 47.712 62.8111 47.712 58.392H45.712ZM41.5366 67.4726C38.7695 69.7258 35.1067 70.896 30.456 70.896V72.896C35.448 72.896 39.5932 71.6342 42.7994 69.0234L41.5366 67.4726ZM56.0995 67.032L55.3877 67.7344L55.3924 67.7391L56.0995 67.032ZM56.0995 42.968L55.3924 42.2609L55.3877 42.2656L56.0995 42.968ZM76.7075 40.344L77.2114 39.4802L77.2114 39.4802L76.7075 40.344ZM82.5315 46.36L83.0368 47.2229L83.861 46.7403L83.4167 45.8949L82.5315 46.36ZM75.4275 50.52L74.5273 50.9556L74.9988 51.9299L75.9328 51.3829L75.4275 50.52ZM72.4835 47.384L71.969 48.2415L71.9752 48.2452L71.9814 48.2488L72.4835 47.384ZM61.9875 48.728L62.6947 49.4352L62.7037 49.4259L61.9875 48.728ZM61.9875 61.272L61.2712 61.9699L61.2804 61.9791L61.9875 61.272ZM72.5475 62.616L73.0405 63.4861L73.0496 63.4808L72.5475 62.616ZM75.4915 59.48L75.9876 58.6118L75.0578 58.0804L74.5913 59.0444L75.4915 59.48ZM82.6595 63.576L83.5323 64.0642L84.016 63.1994L83.1556 62.7078L82.6595 63.576ZM76.7075 69.656L77.2114 70.5198L77.222 70.5135L76.7075 69.656ZM68.1955 70.896C63.6242 70.896 59.8513 69.3696 56.8066 66.3249L55.3924 67.7391C58.833 71.1798 63.1241 72.896 68.1955 72.896V70.896ZM56.8113 66.3296C53.8058 63.284 52.2995 59.53 52.2995 55H50.2995C50.2995 60.0273 51.9932 64.2947 55.3877 67.7344L56.8113 66.3296ZM52.2995 55C52.2995 50.47 53.8058 46.716 56.8113 43.6704L55.3877 42.2656C51.9932 45.7053 50.2995 49.9727 50.2995 55H52.2995ZM56.8066 43.6751C59.8513 40.6304 63.6242 39.104 68.1955 39.104V37.104C63.1241 37.104 58.833 38.8202 55.3924 42.2609L56.8066 43.6751ZM68.1955 39.104C71.1425 39.104 73.8045 39.8083 76.2036 41.2078L77.2114 39.4802C74.4905 37.8931 71.4778 37.104 68.1955 37.104V39.104ZM76.2036 41.2078C78.6088 42.6108 80.4146 44.481 81.6463 46.8251L83.4167 45.8949C82.0031 43.2043 79.9262 41.0639 77.2114 39.4802L76.2036 41.2078ZM82.0262 45.4971L74.9222 49.6571L75.9328 51.3829L83.0368 47.2229L82.0262 45.4971ZM76.3277 50.0844C75.5971 48.5746 74.4734 47.383 72.9856 46.5192L71.9814 48.2488C73.139 48.921 73.9779 49.8201 74.5273 50.9556L76.3277 50.0844ZM72.998 46.5265C71.5493 45.6573 69.9179 45.232 68.1315 45.232V47.232C69.5877 47.232 70.8577 47.5747 71.969 48.2415L72.998 46.5265ZM68.1315 45.232C65.4067 45.232 63.0941 46.1594 61.2713 48.0301L62.7037 49.4259C64.1236 47.9686 65.907 47.232 68.1315 47.232V45.232ZM61.2804 48.0209C59.4489 49.8524 58.5555 52.2086 58.5555 55H60.5555C60.5555 52.6714 61.2834 50.8463 62.6946 49.4351L61.2804 48.0209ZM58.5555 55C58.5555 57.7541 59.4519 60.1027 61.2713 61.9699L62.7037 60.5741C61.2804 59.1133 60.5555 57.2805 60.5555 55H58.5555ZM61.2804 61.9791C63.1051 63.8038 65.4148 64.704 68.1315 64.704V62.704C65.8988 62.704 64.1126 61.9829 62.6946 60.5649L61.2804 61.9791ZM68.1315 64.704C69.9453 64.704 71.5913 64.3072 73.0405 63.486L72.0545 61.746C70.9437 62.3754 69.6457 62.704 68.1315 62.704V64.704ZM73.0496 63.4808C74.5374 62.617 75.6611 61.4254 76.3917 59.9156L74.5913 59.0444C74.0419 60.1799 73.203 61.079 72.0454 61.7512L73.0496 63.4808ZM74.9954 60.3482L82.1634 64.4442L83.1556 62.7078L75.9876 58.6118L74.9954 60.3482ZM81.7867 63.0878C80.467 65.4474 78.6089 67.349 76.193 68.7985L77.222 70.5135C79.9261 68.891 82.036 66.7392 83.5323 64.0642L81.7867 63.0878ZM76.2036 68.7922C73.8045 70.1917 71.1425 70.896 68.1955 70.896V72.896C71.4778 72.896 74.4905 72.1069 77.2114 70.5198L76.2036 68.7922ZM113.58 26.2V25.2H112.58V26.2H113.58ZM122.412 26.2H123.412V25.2H122.412V26.2ZM122.412 71V72H123.412V71H122.412ZM115.692 71L114.873 71.574L115.172 72H115.692V71ZM96.492 43.608L97.3109 43.034L95.492 40.4391V43.608H96.492ZM96.492 71V72H97.492V71H96.492ZM87.66 71H86.66V72H87.66V71ZM87.66 26.2V25.2H86.66V26.2H87.66ZM94.38 26.2L95.1982 25.6251L94.8996 25.2H94.38V26.2ZM113.58 53.528L112.762 54.1029L114.58 56.6908V53.528H113.58ZM113.58 27.2H122.412V25.2H113.58V27.2ZM121.412 26.2V71H123.412V26.2H121.412ZM122.412 70H115.692V72H122.412V70ZM116.511 70.426L97.3109 43.034L95.6731 44.182L114.873 71.574L116.511 70.426ZM95.492 43.608V71H97.492V43.608H95.492ZM96.492 70H87.66V72H96.492V70ZM88.66 71V26.2H86.66V71H88.66ZM87.66 27.2H94.38V25.2H87.66V27.2ZM93.5618 26.7749L112.762 54.1029L114.398 52.9531L95.1982 25.6251L93.5618 26.7749ZM114.58 53.528V26.2H112.58V53.528H114.58ZM159.843 71V72H161.953L160.616 70.3668L159.843 71ZM150.243 71L149.462 71.6255L149.763 72H150.243V71ZM138.595 56.472L139.375 55.8465L137.595 53.6261V56.472H138.595ZM138.595 71V72H139.595V71H138.595ZM130.339 71H129.339V72H130.339V71ZM130.339 26.2V25.2H129.339V26.2H130.339ZM138.595 26.2H139.595V25.2H138.595V26.2ZM138.595 53.08H137.595V55.9827L139.382 53.6959L138.595 53.08ZM149.603 39V38H149.115L148.815 38.3841L149.603 39ZM159.458 39L160.234 39.6312L161.562 38H159.458V39ZM146.595 54.808L145.819 54.1768L145.304 54.8097L145.821 55.4412L146.595 54.808ZM159.843 70H150.243V72H159.843V70ZM151.023 70.3745L139.375 55.8465L137.814 57.0975L149.462 71.6255L151.023 70.3745ZM137.595 56.472V71H139.595V56.472H137.595ZM138.595 70H130.339V72H138.595V70ZM131.339 71V26.2H129.339V71H131.339ZM130.339 27.2H138.595V25.2H130.339V27.2ZM137.595 26.2V53.08H139.595V26.2H137.595ZM139.382 53.6959L150.39 39.6159L148.815 38.3841L137.807 52.4641L139.382 53.6959ZM149.603 40H159.458V38H149.603V40ZM158.683 38.3688L145.819 54.1768L147.37 55.4392L160.234 39.6312L158.683 38.3688ZM145.821 55.4412L159.069 71.6332L160.616 70.3668L147.368 54.1748L145.821 55.4412Z" fill="#7939FF"/>
<path d="M159.311 71.5263C161.464 78.0175 159.808 91 135.96 91C112.112 91 71.04 91 53.4851 91H23.1781C14.7319 90.6491 -1.46494 86.2632 1.31734 71.5263C4.09963 56.7895 2.47663 42.5789 1.31734 37.3158V23.1053C3.80152 18.193 11.6515 9.21052 23.1781 12.5789C34.7047 15.9474 33.6117 6.26316 31.6244 1" stroke="#7939FF"/>
</svg>
